Coordinates
version=1
nRows=19
nColumns=24
inDegrees=yes

Units are S.I. units (second, meters, Newtons, ...)
Angles are in degrees.

endheader
time	pelvis_tilt	pelvis_list	pelvis_rotation	pelvis_tx	pelvis_ty	pelvis_tz	hip_flexion_r	hip_adduction_r	hip_rotation_r	knee_angle_r	ankle_angle_r	subtalar_angle_r	mtp_angle_r	hip_flexion_l	hip_adduction_l	hip_rotation_l	knee_angle_l	ankle_angle_l	subtalar_angle_l	mtp_angle_l	lumbar_extension	lumbar_bending	lumbar_rotation
      1.02900000	     -5.78235246	     -4.21326793	     -4.30338310	     -0.19406805	      0.97255892	      0.32974828	     -7.94844340	      7.83523922	     -2.72409615	     -8.63587195	     13.58049292	     -3.14455415	      0.87422403	     28.33822390	     -3.86843823	     -6.74181288	      1.33627884	     -1.12191413	      1.41080450	      0.41084443	      0.40628047	      7.45707969	      8.36896907
      1.03316667	     -5.81512804	     -4.15800648	     -4.36400251	     -0.18819096	      0.97198938	      0.32947838	     -7.99895483	      7.70533373	     -2.68963252	     -9.16311409	     13.64322428	     -3.13709501	      0.85766371	     28.31109311	     -3.77235116	     -6.88362966	      1.35815181	     -1.35343867	      1.23064277	      0.39620785	      0.47496939	      7.39156703	      8.38502955
      1.03733333	     -5.78604211	     -4.18882610	     -4.43925083	     -0.18218821	      0.97133142	      0.32910839	     -8.11357148	      7.64384724	     -2.66047255	     -9.72962996	     13.72305122	     -3.01761570	      0.83462633	     28.06780463	     -3.76959772	     -6.53393262	      1.58199788	     -1.72251424	      0.50804662	      0.38337690	      0.46211848	      7.43319621	      8.46464450
      1.04150000	     -5.83541269	     -4.11719362	     -4.47073114	     -0.17629612	      0.97086372	      0.32877929	     -8.09655220	      7.49410406	     -2.67584556	    -10.33658681	     13.69367198	     -2.97099521	      0.81824079	     28.05275326	     -3.64984727	     -6.55556197	      1.46928172	     -2.04640712	      0.14347992	      0.38627832	      0.54910438	      7.36145707	      8.45727303
      1.04566667	     -5.87245988	     -4.01278795	     -4.49670869	     -0.17034816	      0.97046919	      0.32846277	     -8.08483333	      7.31224689	     -2.65333766	    -10.95657702	     13.64786539	     -3.00098264	      0.81614576	     28.02579344	     -3.50085780	     -6.58707068	      1.29450700	     -2.41256557	     -0.17779107	      0.39579927	      0.63202625	      7.22197505	      8.44120711
      1.04983333	     -5.92844611	     -3.93511665	     -4.51567321	     -0.16442808	      0.97009239	      0.32809892	     -8.01260623	      7.15528096	     -2.66579405	    -11.65214002	     13.58913688	     -2.99184412	      0.83259070	     28.02266303	     -3.37513299	     -6.49179255	      1.06548082	     -2.83796975	     -0.72731880	      0.43254867	      0.73160625	      7.14200257	      8.44339687
      1.05400000	     -5.97023440	     -3.83491243	     -4.51939094	     -0.15846092	      0.96978738	      0.32772823	     -7.94641130	      6.97727679	     -2.66742500	    -12.35838223	     13.48976670	     -3.02963213	      0.86795421	     28.01258322	     -3.22467252	     -6.39927801	      0.77491847	     -3.30304544	     -1.23991973	      0.48753346	      0.82109411	      7.01898383	      8.42538884
      1.05816667	     -6.04484580	     -3.73078650	     -4.51965866	     -0.15248199	      0.96949512	      0.32734333	     -7.81691111	      6.79719682	     -2.66542711	    -13.11430144	     13.35159260	     -3.09095642	      0.92395906	     28.04583243	     -3.07295858	     -6.27268149	      0.42878972	     -3.80490174	     -1.78568367	      0.55850627	      0.95340875	      6.89599039	      8.40414552
      1.06233333	     -6.09548080	     -3.62162856	     -4.50338104	     -0.14647478	      0.96927800	      0.32693022	     -7.68990945	      6.61016067	     -2.68358738	    -13.90919164	     13.17578456	     -3.16076718	      1.00520169	     28.05521213	     -2.90901989	     -6.10432075	      0.04550472	     -4.33684365	     -2.36863783	      0.64798392	      1.06762983	      6.75646313	      8.37599103
      1.06650000	     -6.15383796	     -3.50406091	     -4.47724334	     -0.14044939	      0.96910280	      0.32649624	     -7.52927414	      6.41493531	     -2.70826980	    -14.74514016	     12.95530779	     -3.25033587	      1.11263666	     28.07940692	     -2.73428794	     -5.91222651	     -0.37883336	     -4.89228184	     -2.96354459	      0.75150321	      1.18932355	      6.61078662	      8.33798767
      1.07066667	     -6.21220077	     -3.38334340	     -4.44142432	     -0.13441010	      0.96897590	      0.32603089	     -7.33950375	      6.21532153	     -2.74027637	    -15.62945960	     12.68899563	     -3.34596770	      1.25859795	     28.10539205	     -2.55183698	     -5.68106624	     -0.83092881	     -5.46041584	     -3.57979905	      0.87712990	      1.31196576	      6.46654788	      8.29620629
      1.07483333	     -6.27570821	     -3.25647980	     -4.39362112	     -0.12835123	      0.96888911	      0.32554486	     -7.11741829	      6.00998073	     -2.78070533	    -16.55654242	     12.37679353	     -3.46691947	      1.42836525	     28.14501537	     -2.35982554	     -5.44266855	     -1.31784742	     -6.04091358	     -4.18159943	      1.00659714	      1.44913466	      6.30570113	      8.24301708
      1.07900000	     -6.33587954	     -3.11787808	     -4.33692767	     -0.12227547	      0.96885074	      0.32502561	     -6.86587684	      5.78863219	     -2.84112731	    -17.53707081	     12.01512554	     -3.58452243	      1.65197299	     28.17985072	     -2.15051950	     -5.17204675	     -1.82081510	     -6.61971794	     -4.80376273	      1.15721601	      1.57998690	      6.14197979	      8.18766057
      1.08316667	     -6.40120462	     -2.97391657	     -4.27078673	     -0.11618288	      0.96885571	      0.32448326	     -6.57917217	      5.56058718	     -2.90731553	    -18.56233351	     11.59241120	     -3.71588138	      1.90623898	     28.22537847	     -1.93278325	     -4.90351867	     -2.34802182	     -7.19276244	     -5.39544879	      1.30661015	      1.72260138	      5.96881282	      8.12420488
      1.08733333	     -6.44908764	     -2.82083935	     -4.19194679	     -0.11007301	      0.96892049	      0.32391207	     -6.27985197	      5.31906568	     -2.99470968	    -19.63577847	     11.11688749	     -3.84660753	      2.21083221	     28.25140979	     -1.69833393	     -4.61831953	     -2.88551920	     -7.74244977	     -5.97480339	      1.46241180	      1.85175204	      5.77500475	      8.05304699
      1.09150000	     -6.51078111	     -2.65794732	     -4.10997589	     -0.10395441	      0.96901513	      0.32331614	     -5.92911096	      5.06278766	     -3.09024500	    -20.76423093	     10.57822624	     -3.97800795	      2.55253383	     28.29403415	     -1.45312777	     -4.34079776	     -3.43879961	     -8.26268518	     -6.52095077	      1.61265925	      1.99777994	      5.57859536	      7.98127040
      1.09566667	     -6.54663813	     -2.48483307	     -4.01523658	     -0.09781712	      0.96917530	      0.32269394	     -5.57604048	      4.79060446	     -3.20191833	    -21.93547253	      9.97523221	     -4.11432472	      2.94601004	     28.30572156	     -1.19009206	     -4.05696584	     -3.99537371	     -8.74910357	     -7.05239979	      1.76071385	      2.11784715	      5.36522305	      7.90227333
      1.09983333	     -6.52014163	     -2.28145175	     -3.87200122	     -0.09161826	      0.96943486	      0.32196247	     -5.27221778	      4.46004257	     -3.44141867	    -23.10686043	      9.14622413	     -4.22264155	      9.52786810	     28.25944442	     -0.86940508	     -3.77772299	     -4.57555549	     -9.16140030	     -7.55383218	      3.85383280	      2.16162351	      5.10254149	      7.81533311
      1.10400000	     -6.58539160	     -2.09505423	     -3.80142480	     -0.08549387	      0.96964439	      0.32136215	     -4.81293606	      4.17342145	     -3.48441054	    -24.38960780	      8.46459365	     -4.48423110	      9.58420558	     28.30166858	     -0.60880808	     -3.57281947	     -5.15287026	     -9.55750477	     -7.95899332	      3.83043037	      2.31848681	      4.88130666	      7.74387971
